<?xml version="1.0" encoding="UTF-8"?>
<svg xmlns="http://www.w3.org/2000/svg" xmlns:xlink="http://www.w3.org/1999/xlink" width="30px" height="30px" viewBox="0 0 30 30" version="1.1">
<g id="surface1">
<path style=" stroke:none;fill-rule:nonzero;fill:rgb(0%,0%,0%);fill-opacity:0.0980392;" d="M 28.40625 10.289062 C 28.238281 9.882812 28.046875 9.484375 27.835938 9.09375 C 27.71875 8.871094 27.59375 8.652344 27.460938 8.4375 C 26.886719 7.507812 26.1875 6.632812 25.363281 5.804688 C 22.664062 3.105469 19.402344 1.757812 15.585938 1.757812 C 11.765625 1.757812 8.507812 3.105469 5.808594 5.804688 C 3.105469 8.507812 1.757812 11.765625 1.757812 15.585938 C 1.757812 19.402344 3.105469 22.664062 5.808594 25.363281 C 8.507812 28.0625 11.765625 29.414062 15.585938 29.414062 C 19.402344 29.414062 22.664062 28.0625 25.363281 25.363281 C 26.851562 23.875 27.929688 22.21875 28.597656 20.390625 C 29.140625 18.902344 29.414062 17.300781 29.414062 15.585938 C 29.414062 14.269531 29.253906 13.019531 28.933594 11.835938 C 28.894531 11.703125 28.859375 11.570312 28.816406 11.4375 C 28.699219 11.046875 28.5625 10.664062 28.40625 10.289062 Z M 28.40625 10.289062 "/>
<path style=" stroke:none;fill-rule:nonzero;fill:rgb(20%,20%,20%);fill-opacity:1;" d="M 28.410156 11.484375 C 28.375 11.351562 28.339844 11.21875 28.300781 11.085938 C 28.273438 10.984375 28.242188 10.878906 28.207031 10.777344 C 28.160156 10.621094 28.109375 10.46875 28.054688 10.3125 C 27.863281 9.777344 27.636719 9.25 27.375 8.742188 C 27.261719 8.519531 27.144531 8.300781 27.015625 8.085938 C 26.417969 7.070312 25.671875 6.117188 24.78125 5.222656 C 22.648438 3.09375 20.171875 1.804688 17.347656 1.351562 C 16.871094 1.277344 16.382812 1.226562 15.882812 1.195312 C 15.589844 1.179688 15.296875 1.171875 15 1.171875 C 14.726562 1.171875 14.453125 1.179688 14.183594 1.195312 C 10.714844 1.375 7.726562 2.714844 5.222656 5.222656 C 2.523438 7.921875 1.171875 11.179688 1.171875 15 C 1.171875 18.820312 2.523438 22.078125 5.222656 24.78125 C 6.878906 26.433594 8.746094 27.582031 10.820312 28.222656 C 11.886719 28.550781 13.007812 28.746094 14.183594 28.808594 C 14.1875 28.808594 14.191406 28.808594 14.195312 28.808594 C 14.429688 28.820312 14.671875 28.828125 14.914062 28.828125 C 14.941406 28.828125 14.972656 28.828125 15 28.828125 C 15.296875 28.828125 15.59375 28.820312 15.882812 28.804688 C 15.949219 28.800781 16.019531 28.796875 16.085938 28.792969 C 16.671875 28.75 17.246094 28.675781 17.804688 28.566406 C 18.035156 28.519531 18.265625 28.46875 18.492188 28.414062 C 20.847656 27.828125 22.941406 26.617188 24.78125 24.78125 C 26.203125 23.355469 27.25 21.773438 27.925781 20.039062 C 28.464844 18.640625 28.765625 17.140625 28.820312 15.542969 C 28.824219 15.363281 28.828125 15.179688 28.828125 15 C 28.828125 14.980469 28.828125 14.960938 28.828125 14.941406 C 28.828125 14.929688 28.828125 14.921875 28.828125 14.914062 C 28.820312 13.714844 28.683594 12.570312 28.410156 11.484375 Z M 28.410156 11.484375 "/>
<path style=" stroke:none;fill-rule:nonzero;fill:rgb(0%,0%,0%);fill-opacity:0.2;" d="M 28.808594 15.789062 L 20.429688 7.15625 L 17.984375 18.25 L 14.558594 13.710938 C 13 16.179688 11.359375 19.261719 9.640625 22.957031 L 15.742188 28.8125 C 15.789062 28.808594 15.835938 28.808594 15.882812 28.804688 C 15.949219 28.800781 16.019531 28.796875 16.085938 28.792969 C 16.671875 28.75 17.246094 28.675781 17.804688 28.566406 C 18.035156 28.519531 18.265625 28.46875 18.492188 28.414062 C 20.847656 27.828125 22.941406 26.617188 24.777344 24.78125 C 26.203125 23.355469 27.25 21.773438 27.925781 20.039062 C 28.4375 18.710938 28.734375 17.296875 28.808594 15.789062 Z M 28.808594 15.789062 "/>
<path style=" stroke:none;fill-rule:nonzero;fill:rgb(82.745098%,4.313725%,14.901961%);fill-opacity:1;" d="M 9.640625 22.957031 L 10.179688 22.910156 C 11.09375 22.761719 12.011719 22.65625 12.933594 22.589844 L 13.371094 22.558594 L 13.371094 15.335938 L 9.640625 7.085938 Z M 9.640625 7.085938 L 9.726562 7.085938 L 9.640625 7.042969 Z M 9.640625 7.085938 "/>
<path style=" stroke:none;fill-rule:nonzero;fill:rgb(65.882353%,2.745098%,12.54902%);fill-opacity:1;" d="M 20.363281 22.957031 L 20.363281 7.085938 L 16.632812 7.085938 L 16.632812 14.699219 Z M 20.363281 22.957031 "/>
<path style=" stroke:none;fill-rule:nonzero;fill:rgb(98.823529%,5.490196%,17.647059%);fill-opacity:1;" d="M 19.820312 22.910156 L 20.363281 22.957031 L 16.632812 14.699219 L 13.199219 7.085938 L 9.640625 7.085938 L 13.371094 15.332031 L 16.636719 22.5625 L 16.910156 22.582031 C 17.890625 22.644531 18.859375 22.753906 19.820312 22.910156 Z M 19.820312 22.910156 "/>
</g>
</svg>
